<svg width="1080" height="1080" viewBox="0 0 1080 1080" fill="none" xmlns="http://www.w3.org/2000/svg">
<g clip-path="url(#clip0_71177_398117)">
<rect width="1080" height="1080" rx="48" fill="#1D0155"/>
<ellipse cx="345.65" cy="382.3" rx="46.65" ry="44.3" fill="#7C52FF"/>
<path d="M695.567 618.243C675.518 621.234 654.373 613.442 635.419 607.797C616.464 602.153 596.584 595.54 577.124 589.643C567.225 586.653 557.285 583.789 547.302 581.261C539.51 579.282 529.443 575.238 521.356 576.965C513.269 578.692 508.594 586.695 510.615 594.614C512.637 602.532 520.008 607.208 527.127 610.451L530.328 598.657C521.988 598.152 513.606 597.899 505.224 598.068C498.864 598.194 491.282 597.478 487.786 603.964C480.289 617.864 503.371 624.056 512.342 626.794L514.027 614.368C506.319 614.242 498.695 614.789 491.114 615.969C485.343 616.853 480.162 619.001 479.067 625.404C478.056 631.216 481.426 635.555 486.438 637.914C493.304 641.115 500.549 643.431 507.962 645.074L509.647 632.649C499.622 632.227 486.101 632.901 477.34 638.419C473.507 640.82 471.106 645.285 472.412 649.834C473.718 654.383 478.309 656.952 482.016 659.395C501.981 672.453 522.578 684.499 543.596 695.872C564.614 707.244 585.969 717.858 607.493 728.178C623.751 735.97 640.094 743.594 657.111 749.66C688.196 760.737 723.872 768.066 756.178 757.662C793.666 745.574 817.632 710.614 822.897 672.537C827.699 638.04 826.983 602.617 820.37 568.415C813.757 534.213 800.152 499.59 775.849 473.728C751.545 447.865 719.112 441.505 686.848 433.123C671.221 429.08 655.426 424.489 641.568 415.98C626.363 406.587 616.212 392.73 610.947 375.713C605.302 357.306 603.955 337.931 598.184 319.566C592.414 301.202 582.515 286.544 566.931 275.929C552.357 266.031 534.161 261.356 516.723 264.641C499.285 267.926 485.006 278.667 475.318 292.525C470.264 299.77 466.684 307.899 463.651 316.154C460.871 323.82 473.044 327.106 475.824 319.524C481.173 304.908 489.345 291.388 503.034 283.343C516.723 275.298 533.698 274.118 549.029 280.478C564.361 286.838 576.197 298.843 582.684 313.796C589.802 330.223 591.571 348.419 595.362 365.772C599.153 383.126 605.218 399.427 617.391 412.442C627.626 423.393 640.768 430.807 654.584 436.24C682.678 447.36 713.932 449.635 741.099 463.24C768.267 476.844 787.432 505.95 798.004 534.802C809.377 565.719 813.631 598.952 813.252 631.764C812.831 666.598 808.534 703.074 781.788 728.22C758.748 749.912 726.315 752.903 696.409 747.343C663.05 741.109 632.428 726.325 602.186 711.582C562.887 692.418 524.136 671.905 487.533 647.854C486.733 647.349 485.469 645.959 484.669 645.917L484.29 645.622C483.616 648.359 484.037 649.286 485.596 648.402C487.281 648.654 491.282 646.759 493.051 646.38C498.527 645.201 504.045 644.948 509.605 645.2C516.639 645.495 518.281 634.333 511.289 632.775C507.541 631.975 503.834 631.006 500.212 629.784C498.4 629.195 496.589 628.521 494.82 627.805C493.557 627.299 492.293 626.709 491.072 626.12C491.619 626.752 491.577 627.384 491.072 627.931C490.229 629.068 490.735 629.195 492.588 628.352C493.599 628.184 494.567 628.015 495.578 627.889C497.558 627.636 499.496 627.426 501.475 627.257C505.687 626.92 509.857 626.836 514.069 626.878C521.314 627.004 522.493 616.516 515.754 614.452C511.5 613.147 507.33 611.673 503.286 609.777C502.992 609.609 498.485 607.123 498.274 607.25C497.811 608.724 498.064 609.903 498.99 610.788C500.043 610.746 501.096 610.704 502.107 610.662C511.5 610.367 520.935 610.577 530.328 611.167C536.351 611.546 539.257 601.985 533.529 599.373C531.549 598.489 517.818 591.202 524.431 589.138C527.337 588.211 533.276 590.739 536.183 591.412C540.058 592.339 543.933 593.308 547.808 594.319C564.909 598.784 581.757 604.091 598.605 609.44C615.454 614.789 631.67 619.97 648.434 624.519C665.198 629.068 681.667 632.859 698.979 630.29C706.982 629.11 703.57 616.895 695.609 618.117L695.567 618.243Z" fill="#F2F0EE"/>
<path d="M363.656 689.891C389.771 688.754 414.537 700.547 437.999 710.656C450.045 715.837 462.007 721.229 473.885 726.831C479.993 729.695 486.058 732.559 492.081 735.55C493.092 736.055 494.482 737.192 495.62 737.403L496.883 738.203C498.147 735.718 497.936 734.791 496.251 735.381C495.156 735.002 492.924 735.718 491.618 735.76C489.765 735.76 487.954 735.634 486.142 735.423C479.866 734.749 477.592 744.437 482.941 747.217C488.796 750.208 493.893 754.041 498.231 758.969C499.158 760.022 502.822 765.245 502.991 765.118C504.17 764.486 501.053 764.234 500.548 764.15C498.484 763.686 496.546 763.012 494.651 762.128C488.922 759.432 483.026 764.908 486.016 770.763C487.701 774.09 489.175 777.797 491.197 780.913C492.376 782.725 492.629 781.461 491.913 781.461C490.06 781.377 487.701 780.113 486.1 779.397C481.004 777.123 475.697 780.829 476.834 786.516C477.508 790.012 478.224 793.466 478.898 796.962C478.982 797.383 479.403 800.879 479.866 799.615C479.572 800.457 476.118 801.468 475.402 801.763C469.294 804.038 462.808 804.627 456.321 804.796C441.284 805.217 426.373 803.237 411.547 800.921C384.632 796.751 357.717 792.16 332.192 782.43C313.364 775.227 296.516 763.728 285.733 746.417C274.95 729.105 271.075 709.856 269.558 690.354C267.284 660.659 267.115 630.711 268.842 600.974C270.274 576.081 271.033 550.051 278.067 525.958C285.101 501.865 299.506 485.311 319.513 472.38C339.521 459.449 359.949 451.825 379.956 441.253C403.46 428.87 422.835 411.769 438.673 390.498C454.51 369.227 466.43 344.544 475.781 319.525C478.645 311.901 466.43 308.615 463.608 316.155C454.805 339.658 443.643 362.488 428.732 382.79C413.821 403.092 395.162 419.013 372.88 430.681C350.598 442.348 329.033 450.351 309.236 463.998C288.218 478.446 273.054 497.905 265.852 522.546C258.649 547.186 257.512 576.376 256.08 602.954C254.437 633.618 254.311 664.829 257.386 695.451C259.492 716.258 264.546 737.234 276.213 754.883C288.471 773.416 306.54 785.8 326.969 793.802C357.885 805.933 391.413 811.072 424.183 815.326C440.315 817.432 457.711 819.117 473.717 815.326C479.782 813.894 488.206 811.367 491.071 805.259C493.935 799.152 490.27 789.548 488.965 783.062L479.698 790.18C487.153 793.508 497.01 797.425 502.78 789.296C508.551 781.166 500.548 771.436 496.883 764.234L488.248 772.869C493.682 775.438 501.306 778.597 507.371 776.575C512.973 774.722 516.385 768.699 515.29 762.928C514.195 757.158 508.93 751.513 504.886 747.47C500.337 742.879 494.988 739.046 489.217 736.097L486.016 747.891C492.208 748.565 502.317 749.07 506.95 744.058C511.583 739.046 509.435 731.885 504.296 728.052C497.978 723.335 489.933 720.47 482.857 717.101C474.938 713.352 466.978 709.688 459.017 706.149C443.432 699.2 427.721 692.208 411.673 686.311C395.625 680.414 380.083 676.497 363.487 677.213C355.4 677.55 355.358 690.186 363.487 689.849L363.656 689.891Z" fill="#F2F0EE"/>
<path d="M504.045 314.681C500.086 323.863 496.127 333.045 492.167 342.227C491.62 343.533 491.03 344.839 490.483 346.145C488.84 349.935 490.019 354.063 494.273 355.411C500.423 357.349 506.573 359.286 512.68 361.266C515.839 362.277 519.714 360.087 520.472 356.843C521.273 353.389 519.419 350.146 516.05 349.051C509.9 347.113 503.751 345.176 497.643 343.196L501.434 352.463C505.393 343.28 509.353 334.098 513.312 324.916C513.859 323.61 514.449 322.304 514.997 320.999C516.302 317.966 516.008 314.091 512.722 312.364C509.984 310.932 505.477 311.395 504.087 314.638L504.045 314.681Z" fill="#F2F0EE"/>
<path d="M351.231 427.563C351.189 433.081 352.115 438.515 352.41 443.99C352.495 445.675 353.042 447.233 354.264 448.455C355.359 449.55 357.17 450.393 358.728 450.308C360.287 450.224 362.056 449.719 363.193 448.455C364.33 447.191 365.131 445.675 365.046 443.99C364.752 438.515 363.825 433.081 363.867 427.563C363.867 424.278 360.961 421.077 357.549 421.245C354.137 421.414 351.273 424.025 351.231 427.563Z" fill="#F2F0EE"/>
<path d="M329.917 429.501C329.665 437.714 329.875 445.97 330.507 454.141C330.76 457.427 333.245 460.628 336.825 460.459C340.026 460.333 343.396 457.68 343.143 454.141C342.511 445.928 342.301 437.714 342.553 429.501C342.638 426.173 339.563 423.014 336.235 423.183C332.739 423.351 330.001 425.963 329.917 429.501Z" fill="#F2F0EE"/>
<path d="M397.016 386.58C407.967 378.662 419.929 372.133 432.608 367.416C438.715 365.141 438.42 357.601 432.608 355.243C415.97 348.419 398.364 344.376 380.42 343.028C377.008 342.775 374.102 346.103 374.102 349.346C374.102 352.968 377.008 355.411 380.42 355.664C397.226 356.97 413.653 361.055 429.238 367.458V355.285C415.507 360.381 402.533 367.163 390.655 375.755C387.875 377.735 386.57 381.273 388.381 384.39C389.982 387.128 394.236 388.644 397.016 386.665V386.58Z" fill="#F2F0EE"/>
<path d="M358.727 373.481C358.937 376.766 359.148 380.094 359.106 383.379C359.106 385.064 359.022 386.749 358.769 388.433C358.895 387.549 358.853 387.928 358.727 388.56C358.685 388.897 358.6 389.234 358.516 389.571C358.348 390.413 358.137 391.256 357.842 392.098C357.758 392.435 357.632 392.772 357.505 393.109C357.295 393.656 357.126 394.12 357.505 393.319C357.21 393.993 356.789 394.583 356.494 395.257C356.242 395.636 356.326 395.51 356.789 394.92L356.494 395.257L356.157 395.594L356.747 395.173C355.905 395.72 357.253 395.089 357.59 395.046C358.221 394.962 358.937 395.046 359.527 395.383C359.948 395.636 360.201 396.015 359.696 395.468C359.401 395.173 359.148 394.878 358.853 394.541C358.432 394.036 358.264 393.741 358.727 394.415C358.558 394.12 358.348 393.867 358.137 393.572C357.674 392.856 357.253 392.14 356.874 391.382C356.747 391.129 356.494 390.75 356.452 390.455C356.705 391.761 356.452 390.455 356.368 390.076C355.484 387.549 353.167 385.317 350.261 385.443C347.354 385.569 344.911 387.296 344.153 390.076C343.521 392.393 342.889 394.752 342.258 397.068C342.089 397.658 341.963 398.248 341.752 398.837L341.626 399.216C341.373 399.848 341.457 399.722 341.836 398.795L341.668 399.132C341.289 399.68 341.415 399.553 342.005 398.753C342.974 397.784 344.616 397.489 345.88 397.826C346.259 397.911 346.596 398.079 346.891 398.332C347.27 398.669 347.27 398.627 346.891 398.248C346.554 397.869 346.175 397.532 345.838 397.152C345.501 396.773 345.164 396.394 344.827 396.015C343.858 394.92 345.332 396.773 344.574 395.72C343.311 393.909 342.216 392.056 341.331 390.034C339.983 387.001 335.308 386.075 332.696 387.76C329.537 389.781 328.99 393.151 330.422 396.394C331.728 399.385 333.539 402.038 335.603 404.566C337.961 407.472 341.036 410.463 345.08 410.294C353.546 409.915 354.725 399.764 356.452 393.404H344.279C345.922 398.121 348.618 403.049 352.83 405.956C358.348 409.789 365.087 406.166 367.867 400.859C372.29 392.435 372.037 382.705 371.405 373.481C371.194 370.195 368.667 366.994 365.087 367.163C361.844 367.289 358.516 369.943 358.769 373.481H358.727Z" fill="#F2F0EE"/>
</g>
<defs>
<clipPath id="clip0_71177_398117">
<rect width="1080" height="1080" rx="48" fill="white"/>
</clipPath>
</defs>
</svg>
