<svg width="1080" height="1080" viewBox="0 0 1080 1080" fill="none" xmlns="http://www.w3.org/2000/svg">
<g clip-path="url(#clip0_71176_397754)">
<rect width="1080" height="1080" rx="48" fill="#1D0155"/>
<g clip-path="url(#clip1_71176_397754)">
<circle cx="651.229" cy="580.248" r="54.2991" fill="#7C52FF"/>
<ellipse cx="644.921" cy="341.982" rx="67.9878" ry="67.9878" fill="#7C52FF"/>
<circle cx="384.968" cy="527.949" r="99.9821" fill="#7C52FF"/>
<path d="M421.021 731.112C421.021 731.112 421.021 731.012 421.021 730.972C421.121 728.773 418.882 726.173 416.522 726.473C414.562 726.733 412.703 727.693 412.183 729.772C411.603 732.152 411.443 734.751 411.123 737.171C410.223 743.59 409.383 750.029 408.564 756.448C406.384 773.664 404.424 790.901 403.084 808.198C402.405 816.917 401.845 825.655 401.845 834.414C401.845 840.213 410.843 840.213 410.843 834.414C410.863 817.997 412.503 801.56 414.222 785.242C415.122 776.724 416.102 768.205 417.162 759.707C417.602 756.248 418.042 752.788 418.482 749.329C418.682 747.809 418.882 746.309 419.082 744.81C419.262 743.41 418.962 745.69 419.142 744.33C419.182 744.07 419.222 743.79 419.242 743.53C419.342 742.77 419.442 742.01 419.542 741.27C419.961 738.271 420.121 735.091 420.841 732.152L416.502 735.451C415.002 733.952 413.503 732.452 412.003 730.952C412.003 730.992 412.003 731.052 412.003 731.092C411.703 733.512 414.282 735.591 416.502 735.591C419.182 735.591 420.701 733.512 421.001 731.092L421.021 731.112Z" fill="#F8F7F6"/>
<path d="M431.959 640.508C438.618 637.469 445.757 634.909 451.936 630.95C458.115 626.991 462.294 621.792 466.513 616.213C472.772 607.914 477.311 599.216 480.151 589.178C482.99 579.139 484.39 568.821 486.29 558.603C488.189 548.385 490.369 538.587 495.208 529.688C499.527 521.71 506.006 514.991 513.805 510.392C521.163 506.053 529.802 503.633 538.38 504.633C547.459 505.693 555.277 510.932 561.256 517.61C575.834 533.928 578.813 555.964 584.272 576.3C587.192 587.178 591.351 597.496 598.05 606.614C604.229 614.993 611.467 622.392 619.846 628.591C628.224 634.789 637.203 639.209 646.941 641.868C657.359 644.708 668.097 644.908 678.795 643.748C702.471 641.148 725.187 633.01 746.703 623.052C766.339 613.953 785.076 602.975 800.733 587.878C808.292 580.579 815.071 572.401 820.73 563.542C822.649 560.543 824.289 557.403 826.069 554.324C826.469 553.644 826.869 552.964 827.309 552.304C827.509 551.984 828.488 550.645 828.288 550.884C828.468 550.665 828.668 550.445 828.868 550.225L829.148 549.925C829.548 549.565 829.528 549.565 829.088 549.925C829.028 549.685 830.408 549.725 828.828 549.965C828.608 550.005 825.209 549.785 825.589 548.825C825.549 548.905 826.649 550.884 826.729 551.364C826.909 552.444 826.729 553.644 826.509 554.724C825.969 557.243 824.929 559.583 823.809 561.883C822.829 563.882 823.089 566.282 824.969 567.681C826.609 568.901 829.448 569.101 830.868 567.322C836.727 560.103 839.806 551.104 845.345 543.686C845.545 543.426 845.505 543.466 845.265 543.786C845.425 543.586 845.585 543.406 845.745 543.206C845.985 542.966 846.225 542.726 846.445 542.466C847.005 541.866 846.965 542.386 846.425 542.446C847.405 542.326 846.225 542.486 845.785 542.546C844.725 542.686 844.106 542.246 843.286 541.666L843.446 541.826C843.006 541.226 842.926 541.146 843.206 541.566C843.386 541.906 843.386 541.926 843.266 541.626C843.086 541.126 843.106 541.346 843.366 542.246C843.486 543.106 843.566 543.966 843.566 544.846C843.566 552.344 838.926 559.223 835.007 565.262C832.288 569.461 838.866 574.76 842.066 570.721C845.645 566.202 849.225 561.663 852.824 557.143C854.564 554.944 856.303 552.744 858.043 550.545C858.543 549.905 860.723 547.905 860.623 547.205C860.603 547.005 859.703 547.005 859.083 546.785C860.263 547.225 857.383 545.905 857.983 545.965C858.283 546.005 857.903 546.725 858.083 546.085C857.923 546.625 857.983 546.365 858.143 546.085C857.783 546.725 857.283 547.705 856.843 548.485C855.683 550.565 854.404 552.604 853.104 554.604C850.404 558.823 847.565 562.982 845.385 567.521C844.505 569.341 844.605 571.481 846.085 572.981C847.405 574.3 849.944 574.84 851.544 573.68C854.864 571.301 858.083 568.801 861.282 566.262C861.562 566.042 861.842 565.822 862.122 565.602C862.702 565.162 861.642 565.962 862.202 565.542C862.722 565.142 863.262 564.762 863.802 564.382C864.342 564.002 864.922 563.642 865.482 563.262C865.962 562.942 866.422 562.602 866.901 562.302C867.341 561.982 867.801 561.703 868.261 561.443L865.822 560.683C865.582 560.863 865.462 562.382 865.362 562.742C865.022 563.882 864.602 565.002 864.202 566.142C863.402 568.421 862.542 570.681 861.642 572.941C859.903 577.3 857.943 581.579 855.843 585.778C847.285 602.895 836.207 618.652 823.429 632.87C810.652 647.087 796.134 659.885 780.797 671.423C764.16 683.941 746.763 695.539 728.386 705.337C708.03 716.175 686.234 724.853 663.278 728.033C660.758 728.373 659.719 731.452 660.139 733.572C665.058 758.527 669.857 783.483 674.416 808.498C675.916 816.777 677.415 825.055 678.775 833.354C679.175 835.753 682.155 837.093 684.314 836.493C686.854 835.793 687.854 833.374 687.454 830.954C682.455 800.56 676.456 770.305 670.557 740.051C669.977 737.091 669.397 734.132 668.817 731.172L665.678 736.711C687.614 733.672 708.59 725.573 728.226 715.575C747.863 705.577 766.859 693.099 784.696 679.701C817.79 654.846 847.505 624.531 865.382 586.738C867.961 581.299 870.281 575.74 872.341 570.081C874.18 565.042 877.06 557.803 871.501 553.964C866.602 550.565 861.422 554.984 857.483 557.943C853.964 560.603 850.564 563.382 846.985 565.962L853.144 572.121C855.943 566.302 859.803 561.083 863.142 555.584C865.962 550.944 869.241 545.305 864.862 540.446C863.062 538.447 860.343 537.707 857.783 538.547C854.184 539.706 852.044 543.746 849.825 546.565C845.105 552.504 840.406 558.463 835.687 564.402L842.746 569.861C847.765 562.142 853.104 553.224 852.504 543.626C852.304 540.286 851.644 536.447 848.565 534.527C846.445 533.208 843.826 533.488 841.786 534.807C837.587 537.507 835.027 542.966 832.668 547.185C831.188 549.845 829.748 552.504 828.228 555.144C827.529 556.344 826.829 557.543 826.089 558.703C825.749 559.223 825.409 559.743 825.049 560.243C824.889 560.483 824.709 560.703 824.549 560.943C824.849 560.583 824.829 560.583 824.509 560.983L831.568 566.442C834.147 561.203 836.527 555.424 835.467 549.465C834.707 545.205 831.468 539.906 826.409 541.306C822.849 542.286 820.51 546.085 818.71 549.025C816.91 551.964 815.491 554.844 813.731 557.683C802.453 575.92 786.156 590.557 767.979 601.715C748.123 613.913 725.887 623.551 703.431 629.79C682.514 635.609 659.539 638.909 639.102 629.61C620.806 621.292 604.229 605.215 596.85 586.358C592.631 575.58 590.611 564.122 587.751 552.924C584.892 541.726 581.293 531.748 575.594 522.29C570.335 513.531 563.256 505.453 554.158 500.554C545.059 495.654 535.661 494.555 525.963 496.294C506.086 499.874 490.569 515.451 483.47 533.788C475.772 553.644 476.451 575.72 468.493 595.476C465.153 603.735 459.594 611.414 453.536 617.912C452.516 619.012 451.456 620.052 450.316 621.032C450.096 621.212 449.896 621.392 449.676 621.572C448.636 622.432 450.376 621.072 449.296 621.872C448.756 622.272 448.196 622.652 447.637 623.032C444.997 624.751 442.118 626.131 439.258 627.431C435.279 629.25 431.28 630.97 427.32 632.79C425.121 633.81 424.561 636.989 425.701 638.949C427.02 641.208 429.64 641.588 431.859 640.568L431.959 640.508Z" fill="#F8F7F6"/>
<path d="M437.398 629.251C428.64 632.57 419.641 634.09 410.263 633.79C401.385 633.51 392.606 632.15 383.968 630.131C366.111 625.971 348.914 619.212 332.437 611.234C304.022 597.496 277.787 578.52 262.51 550.205C260.13 545.786 256.031 537.847 249.812 539.687C245.653 540.906 243.953 546.685 243.873 550.465C243.753 555.504 245.893 560.363 248.072 564.782L255.131 559.323C254.811 558.943 254.811 558.923 255.091 559.283C254.911 559.043 254.751 558.823 254.591 558.583C254.251 558.063 253.891 557.564 253.551 557.044C252.811 555.884 252.091 554.684 251.412 553.484C249.892 550.845 248.452 548.185 246.972 545.526C244.613 541.306 242.053 535.847 237.854 533.148C235.814 531.848 233.195 531.548 231.075 532.868C227.996 534.788 227.336 538.627 227.136 541.966C226.536 551.545 231.875 560.463 236.894 568.202L243.953 562.743C239.234 556.804 234.535 550.845 229.815 544.906C227.696 542.226 225.656 538.467 222.397 537.127C219.737 536.027 216.738 536.647 214.778 538.807C210.379 543.666 213.698 549.325 216.498 553.944C219.837 559.463 223.697 564.662 226.496 570.481L232.655 564.322C229.556 562.103 226.576 559.743 223.557 557.384C220.537 555.024 216.338 551.165 212.299 551.005C205.62 550.725 204.02 558.123 205.46 563.203C206.9 568.282 208.939 573.021 210.959 577.78C219.037 596.876 230.275 614.393 243.513 630.33C256.691 646.208 271.868 660.305 288.165 672.923C305.722 686.5 324.079 699.158 343.555 709.816C365.431 721.774 389.087 731.672 413.942 735.092C416.342 735.432 418.782 734.512 419.481 731.952C420.061 729.853 418.762 726.753 416.342 726.413C375.289 720.734 337.756 698.318 304.822 674.283C273.808 651.627 245.673 624.532 227.096 590.558C222.037 581.299 217.518 571.561 214.358 561.483C214.178 560.923 214.118 559.543 213.778 559.083L211.339 559.843C211.699 560.023 212.039 560.243 212.359 560.463C212.958 560.843 213.538 561.263 214.138 561.663C214.838 562.123 215.518 562.563 216.198 563.043C216.498 563.263 216.798 563.462 217.078 563.682C217.718 564.142 217.338 563.862 217.518 564.002C221.037 566.722 224.476 569.481 228.096 572.081C229.696 573.221 232.235 572.701 233.555 571.381C235.035 569.901 235.135 567.742 234.255 565.922C232.135 561.523 229.396 557.464 226.776 553.364C225.476 551.345 224.176 549.325 222.997 547.225C222.497 546.326 221.977 545.266 221.497 544.446C221.497 544.446 221.677 545.286 221.537 544.666C221.557 544.766 221.417 544.346 221.637 544.326C221.597 544.326 221.517 544.786 221.377 544.806C221.377 544.806 218.737 545.726 218.857 545.346C218.697 545.846 220.877 548.025 221.257 548.525C222.997 550.725 224.736 552.924 226.476 555.124C230.155 559.783 233.855 564.442 237.534 569.081C240.714 573.081 247.352 567.882 244.593 563.622C240.754 557.703 236.174 550.945 236.034 543.626C236.014 542.606 236.134 541.626 236.234 540.607L236.414 539.767C236.174 540.287 236.174 540.347 236.374 539.927C236.274 539.587 236.114 540.167 236.294 540.047C235.614 540.507 235.055 540.966 234.195 540.966C233.995 540.966 231.915 540.667 233.155 540.807C232.715 540.747 232.515 540.167 233.135 540.827C233.355 541.066 233.595 541.306 233.835 541.566C233.995 541.746 234.155 541.946 234.315 542.146C234.055 541.806 234.035 541.786 234.235 542.046C239.774 549.465 242.873 558.463 248.712 565.682C250.112 567.402 253.031 567.302 254.611 566.042C256.431 564.582 256.791 562.303 255.771 560.243C254.251 557.144 252.311 553.284 252.851 549.725C252.931 549.185 253.131 548.645 253.391 548.145C253.431 548.065 254.011 547.185 254.011 547.185C254.151 547.345 252.511 548.245 252.411 548.285C251.672 548.505 250.912 548.065 250.252 548.105C250.592 548.105 250.432 548.525 250.352 548.165C250.312 547.945 250.212 548.045 250.472 548.305C250.732 548.565 250.972 548.825 251.192 549.085C251.672 549.645 250.872 548.645 251.352 549.265C251.492 549.465 251.632 549.665 251.772 549.865C252.131 550.405 252.491 550.945 252.831 551.505C253.391 552.424 253.931 553.364 254.451 554.304C255.731 556.664 257.051 558.983 258.47 561.243C266.809 574.5 277.607 586.138 289.885 595.837C302.163 605.535 316.42 613.653 330.957 620.512C347.034 628.091 363.751 634.63 381.068 638.729C400.405 643.288 420.761 645.108 439.718 637.949C441.997 637.089 443.537 634.91 442.857 632.41C442.257 630.231 439.598 628.411 437.318 629.271L437.398 629.251Z" fill="#F8F7F6"/>
<path d="M534.701 518.91C540.36 524.509 546.039 530.088 551.698 535.687C552.498 536.467 553.298 537.267 554.098 538.047V531.688C550.558 535.027 547.039 538.387 543.499 541.726C541.74 543.406 541.82 546.405 543.499 548.085C545.179 549.765 548.099 549.765 549.858 548.085C553.398 544.746 556.917 541.386 560.456 538.047C562.216 536.387 562.156 533.368 560.456 531.688C554.797 526.089 549.118 520.51 543.459 514.911C542.66 514.131 541.86 513.331 541.06 512.551C539.34 510.852 536.421 510.832 534.701 512.551C532.981 514.271 532.961 517.21 534.701 518.91Z" fill="#F8F7F6"/>
<path d="M593.37 419.568C590.511 427.807 587.651 436.025 584.792 444.264L579.793 458.641C578.353 462.78 576.653 466.54 573.234 469.499C567.855 474.198 560.456 475.318 553.797 473.078C552.898 472.779 551.998 472.459 551.098 472.139C545.379 470.159 539.64 468.159 533.921 466.18C513.025 458.921 492.108 451.662 471.212 444.404C450.316 437.145 429.32 429.846 408.363 422.568C402.465 420.508 396.566 418.468 390.647 416.409C389.667 416.069 388.687 415.749 387.707 415.389C381.468 413.089 376.869 407.79 375.349 401.331C374.25 396.692 375.309 392.393 376.829 388.054L381.588 374.356C384.568 365.758 387.387 357.079 390.547 348.561C393.066 341.742 399.305 336.703 406.544 335.803C409.943 335.383 413.203 336.043 416.402 337.143C420.941 338.723 425.5 340.302 430.04 341.882C449.916 348.781 469.792 355.7 489.669 362.598C511.325 370.117 533.001 377.656 554.657 385.174C561.656 387.614 568.655 390.033 575.633 392.473C580.413 394.133 585.132 395.432 588.831 399.192C594.19 404.631 595.69 412.429 593.33 419.588C591.511 425.107 600.189 427.467 602.009 421.988C607.028 406.83 598.469 390.973 583.672 385.774C579.393 384.274 575.114 382.795 570.834 381.315C550.538 374.276 530.242 367.217 509.945 360.179C487.689 352.44 465.433 344.721 443.177 336.983C436.318 334.603 429.46 332.224 422.601 329.844C415.742 327.465 408.963 325.725 401.525 327.705C392.386 330.144 385.208 337.023 381.968 345.821C380.908 348.681 379.969 351.58 378.969 354.46C375.329 364.918 371.71 375.356 368.071 385.814C366.171 391.273 365.311 396.692 366.371 402.471C367.951 411.25 374.13 419.168 382.228 422.867C385.967 424.587 390.027 425.747 393.906 427.107C412.783 433.666 431.639 440.224 450.516 446.763C473.412 454.722 496.288 462.66 519.184 470.619C527.122 473.378 535.041 476.138 542.979 478.877C546.719 480.177 550.538 481.837 554.437 482.637C563.636 484.536 573.214 481.877 580.093 475.458C584.212 471.619 586.492 466.76 588.311 461.561C591.971 451.022 595.63 440.484 599.289 429.946C600.209 427.307 601.129 424.667 602.029 422.028C603.928 416.549 595.25 414.189 593.35 419.628L593.37 419.568Z" fill="#F8F7F6"/>
<path d="M698.852 409.35C710.849 400.772 722.167 391.293 732.645 380.895H726.287C736.065 390.633 745.843 400.372 755.601 410.11C756.921 411.43 759.421 411.93 761.06 410.81C767.479 406.411 772.998 400.832 779.477 396.532C785.116 392.773 791.855 390.114 798.514 392.773C804.413 395.113 808.892 400.652 810.611 406.651C812.451 413.049 810.692 419.708 806.652 424.907C801.893 431.026 794.334 435.025 786.596 435.545C782.497 435.825 780.937 440.165 783.416 443.224C796.074 458.801 808.732 474.378 821.37 489.976V483.617C810.432 493.655 799.513 503.673 788.575 513.711C786.016 516.051 787.436 520.31 790.555 521.23C798.694 523.63 807.472 526.069 813.451 532.468C818.49 537.867 819.79 544.986 815.931 551.425C812.071 557.863 805.172 562.723 798.894 566.662C792.615 570.601 784.156 574.061 778.557 567.142C772.438 559.583 773.658 548.285 771.479 539.327C770.819 536.607 767.259 535.048 764.86 536.647C749.103 547.065 733.365 557.464 717.608 567.882L723.067 568.582C700.471 541.366 676.815 515.051 652.12 489.736C645.141 482.577 638.082 475.498 630.964 468.499L630.044 475.558C642.942 466.82 655.119 457.042 666.377 446.283L659.319 445.364C668.057 460.321 685.654 471.979 703.411 466.64C711.289 464.28 718.728 458.861 722.327 451.323C726.807 441.964 724.827 431.866 720.528 422.828C716.228 413.789 709.43 404.011 699.151 400.712C693.632 398.932 691.253 407.63 696.752 409.39C703.471 411.55 707.69 417.989 710.929 423.847C714.529 430.366 717.628 438.265 714.989 445.684C710.609 458.021 694.872 461.561 683.914 456.602C676.716 453.342 671.017 447.563 667.077 440.804C665.597 438.265 662.098 437.905 660.018 439.885C649.3 450.123 637.782 459.441 625.505 467.74C623.145 469.339 622.405 472.659 624.585 474.798C649.82 499.574 674.096 525.329 697.292 552.024C703.851 559.563 710.309 567.182 716.688 574.86C717.888 576.3 720.588 576.58 722.147 575.56C737.905 565.142 753.642 554.744 769.399 544.326L762.78 541.646C765.34 552.124 764.4 563.442 771.379 572.421C774.418 576.34 778.637 579.14 783.596 579.899C789.095 580.739 794.414 579.14 799.294 576.68C807.972 572.341 816.83 565.642 822.489 557.703C828.148 549.765 828.828 539.027 823.329 530.548C816.49 519.97 804.413 515.871 792.915 512.492L794.894 520.01C805.832 509.972 816.75 499.954 827.688 489.916C829.608 488.156 829.168 485.376 827.688 483.557C815.031 467.98 802.373 452.402 789.735 436.805L786.556 444.484C804.133 443.304 822.209 428.367 820.21 409.41C819.25 400.412 814.371 392.273 806.952 387.134C799.533 381.995 789.695 381.575 781.217 385.254C771.798 389.354 764.84 397.292 756.481 403.011L761.94 403.711C752.162 393.973 742.384 384.235 732.625 374.496C730.906 372.777 727.986 372.777 726.267 374.496C716.328 384.355 705.67 393.413 694.292 401.531C692.313 402.951 691.373 405.451 692.673 407.69C693.812 409.65 696.832 410.73 698.832 409.31L698.852 409.35Z" fill="#F8F7F6"/>
<path d="M460.094 246.499C461.134 258.057 462.194 269.635 463.234 281.193C464.893 299.61 466.573 318.046 468.233 336.463C468.613 340.682 468.993 344.902 469.373 349.101C469.693 352.7 472.892 354.44 476.151 352.98C488.029 347.661 499.907 342.342 511.805 337.023C530.722 328.564 549.638 320.086 568.555 311.628C572.874 309.688 577.193 307.768 581.493 305.829C584.512 304.489 584.372 299.45 581.493 298.05C568.575 291.791 555.657 285.552 542.739 279.293C522.163 269.335 501.567 259.377 480.991 249.419C476.291 247.139 471.572 244.859 466.873 242.58C464.694 241.52 462.014 241.98 460.714 244.2C459.554 246.179 460.134 249.299 462.334 250.359C475.252 256.617 488.169 262.856 501.087 269.115C521.663 279.073 542.26 289.032 562.836 298.99C567.535 301.269 572.254 303.549 576.953 305.829V298.05C565.075 303.369 553.198 308.688 541.3 314.007C522.383 322.466 503.467 330.944 484.55 339.403C480.231 341.342 475.911 343.262 471.612 345.202L478.391 349.081C477.351 337.523 476.291 325.945 475.252 314.387L470.252 259.117C469.873 254.898 469.493 250.678 469.113 246.479C468.873 244.08 467.173 242 464.594 242C462.334 242 459.874 244.06 460.094 246.499Z" fill="#F8F7F6"/>
<path d="M312.621 319.826C314.82 331.704 317.02 343.582 319.219 355.46C319.859 358.939 324.458 359.599 326.738 357.44C334.577 350.001 342.415 342.562 350.254 335.124C350.514 334.884 353.113 332.824 353.033 332.484C353.213 333.284 351.374 332.884 351.194 332.784C350.514 332.404 350.574 330.704 350.634 330.724C350.514 330.664 350.934 330.364 350.634 330.764C350.254 331.264 350.014 332.044 349.754 332.624C347.094 338.183 344.455 343.742 341.795 349.301C339.596 353.92 337.376 358.559 335.176 363.178C333.897 365.858 335.356 370.437 339.056 369.957C349.874 368.538 360.692 367.118 371.49 365.678C371.93 365.618 375.249 365.598 375.529 365.198C374.609 366.498 372.97 362.059 374.389 362.519C374.13 362.439 372.87 363.338 372.65 363.458C367.231 366.398 361.812 369.337 356.393 372.277C351.813 374.756 347.234 377.256 342.655 379.736C339.736 381.315 339.736 385.914 342.655 387.514C352.233 392.713 361.832 397.932 371.41 403.131L373.59 404.311C374.689 404.911 374.15 404.931 374.03 404.251C373.95 403.831 373.75 403.411 373.95 402.951C373.99 402.831 375.129 401.552 375.489 402.052C375.449 401.992 374.989 402.052 374.789 402.012C374.17 401.852 373.47 401.832 372.83 401.752C366.711 400.952 360.612 400.152 354.493 399.332C349.334 398.652 344.155 397.972 338.996 397.292C335.276 396.812 333.837 401.392 335.116 404.071C339.776 413.829 344.415 423.568 349.074 433.326C349.454 434.106 349.994 436.225 350.714 436.785C348.214 434.906 353.273 433.806 353.013 434.806C353.013 434.766 352.793 434.626 352.793 434.586C352.513 434.066 351.734 433.586 351.314 433.166L337.896 420.448C334.177 416.909 330.457 413.389 326.738 409.85C324.458 407.691 319.859 408.35 319.219 411.83C317.24 422.548 315.24 433.286 313.26 444.004C313.16 444.564 312.521 447.263 312.74 447.363C312.261 447.163 313.88 446.624 314.02 446.624C314.16 446.624 315.78 447.163 315.3 447.363C315.56 447.263 315.22 447.583 315.38 447.323C315.54 447.103 315.12 445.904 315.06 445.624L311.681 427.447C310.721 422.248 309.741 417.029 308.781 411.83C308.141 408.35 303.542 407.691 301.263 409.85C293.424 417.289 285.585 424.727 277.747 432.166C277.487 432.406 274.887 434.466 274.967 434.806C274.787 434.006 276.627 434.406 276.807 434.506C277.487 434.886 277.427 436.585 277.367 436.565C277.487 436.625 277.067 436.925 277.367 436.525C277.747 436.025 277.987 435.246 278.247 434.666L286.205 417.989C288.405 413.369 290.624 408.73 292.824 404.111C294.104 401.432 292.644 396.852 288.945 397.332C278.127 398.752 267.309 400.172 256.511 401.612C256.071 401.672 252.751 401.692 252.471 402.091C253.391 400.792 255.031 405.231 253.611 404.771C253.871 404.851 255.131 403.951 255.351 403.831C260.77 400.892 266.189 397.952 271.608 395.013C276.187 392.533 280.766 390.034 285.345 387.554C288.265 385.974 288.265 381.375 285.345 379.776C275.767 374.576 266.169 369.357 256.591 364.158L254.411 362.979C253.311 362.379 253.851 362.359 253.971 363.038C254.051 363.458 254.251 363.878 254.051 364.338C254.011 364.458 252.871 365.738 252.511 365.238C252.551 365.298 253.011 365.238 253.211 365.278C253.831 365.438 254.531 365.458 255.171 365.538C261.29 366.338 267.389 367.138 273.508 367.958C278.667 368.638 283.846 369.317 289.005 369.997C292.724 370.477 294.164 365.898 292.884 363.218C288.225 353.46 283.586 343.722 278.927 333.964C278.547 333.184 278.007 331.064 277.287 330.504C279.786 332.384 274.727 333.484 274.987 332.484C274.987 332.524 275.207 332.664 275.207 332.704C275.487 333.224 276.267 333.704 276.687 334.124C281.166 338.363 285.625 342.602 290.105 346.841C293.824 350.381 297.543 353.9 301.263 357.44C303.542 359.599 308.141 358.939 308.781 355.46C310.001 348.861 311.221 342.282 312.441 335.683L314.72 323.446C314.88 322.626 315.5 321.086 315.32 320.246C315.32 320.206 315.42 319.846 315.4 319.826C315.04 319.606 313.2 322.046 312.621 319.826C314.12 325.425 322.799 323.046 321.299 317.427C319.479 310.648 309.741 309.588 307.102 316.367C306.362 318.247 306.182 320.386 305.822 322.366L301.403 346.242L300.143 353.06L307.661 351.081C299.303 343.142 290.924 335.203 282.566 327.265C280.146 324.965 277.387 323.206 273.867 324.345C268.808 325.985 267.769 331.224 269.788 335.563C272.288 340.942 274.907 346.282 277.447 351.641C279.986 357 282.566 362.399 285.145 367.778L289.025 360.999C277.527 359.479 266.009 357.979 254.511 356.46C251.272 356.04 248.052 356.86 246.252 359.919C243.953 363.838 245.673 368.278 249.372 370.477C254.511 373.517 259.89 376.196 265.129 379.036C270.368 381.875 275.607 384.715 280.826 387.554V379.776C270.628 385.315 260.43 390.854 250.232 396.393C247.352 397.952 245.053 400.272 245.193 403.831C245.373 408.25 249.192 411.35 253.491 411.01C259.43 410.53 265.369 409.45 271.268 408.67C277.167 407.89 283.086 407.111 288.985 406.331L285.105 399.552C280.146 409.97 275.167 420.368 270.208 430.786C268.748 433.826 267.789 436.845 269.868 439.985C272.768 444.364 278.207 444.004 281.746 440.805C286.145 436.825 290.365 432.626 294.664 428.547C298.963 424.467 303.302 420.348 307.621 416.249L300.103 414.269C302.222 425.687 304.342 437.085 306.442 448.503C307.022 451.643 308.561 454.442 311.921 455.382C316.34 456.602 320.359 453.742 321.359 449.483C322.719 443.684 323.539 437.705 324.638 431.846C325.738 425.987 326.818 420.128 327.898 414.269L320.379 416.249C328.738 424.188 337.116 432.126 345.475 440.065C347.894 442.364 350.654 444.124 354.173 442.984C359.232 441.344 360.272 436.105 358.252 431.766C355.753 426.387 353.133 421.048 350.594 415.689C348.054 410.33 345.475 404.931 342.895 399.552L339.016 406.331C350.514 407.85 362.032 409.35 373.53 410.87C376.769 411.29 379.988 410.47 381.788 407.411C384.088 403.491 382.368 399.052 378.669 396.852C373.53 393.813 368.151 391.133 362.912 388.294C357.672 385.454 352.433 382.615 347.214 379.776V387.554C357.412 382.015 367.611 376.476 377.809 370.937C380.688 369.377 382.988 367.058 382.848 363.498C382.668 359.079 378.849 355.98 374.549 356.32C368.61 356.8 362.672 357.879 356.773 358.659C350.874 359.439 344.955 360.219 339.056 360.999L342.935 367.778C347.894 357.36 352.873 346.961 357.832 336.543C359.292 333.504 360.252 330.484 358.172 327.345C355.273 322.966 349.834 323.326 346.294 326.525C341.895 330.504 337.676 334.704 333.377 338.783C329.078 342.862 324.738 346.981 320.419 351.081L327.938 353.06C325.738 341.182 323.539 329.305 321.339 317.427C320.899 315.027 318 313.687 315.8 314.287C313.28 314.967 312.221 317.427 312.661 319.826H312.621Z" fill="#F8F7F6"/>
<path d="M601.429 471.719L604.209 486.676L615.247 476.218C617.666 473.939 621.445 476.678 620.006 479.678L613.467 493.395L628.544 491.415C631.844 490.976 633.283 495.435 630.364 497.014L617.006 504.273L630.364 511.532C633.283 513.112 631.844 517.571 628.544 517.131L613.467 515.151L620.006 528.869C621.445 531.868 617.646 534.628 615.247 532.328L604.209 521.87L601.429 536.827C600.829 540.087 596.15 540.087 595.53 536.827L592.751 521.87L581.713 532.328C579.293 534.608 575.514 531.868 576.953 528.869L583.492 515.151L568.415 517.131C565.116 517.571 563.676 513.112 566.595 511.532L579.953 504.273L566.595 497.014C563.676 495.435 565.116 490.976 568.415 491.415L583.492 493.395L576.953 479.678C575.514 476.678 579.313 473.919 581.713 476.218L592.751 486.676L595.53 471.719C596.13 468.46 600.809 468.46 601.429 471.719Z" fill="#F8F7F6"/>
</g>
</g>
<defs>
<clipPath id="clip0_71176_397754">
<rect width="1080" height="1080" rx="48" fill="white"/>
</clipPath>
<clipPath id="clip1_71176_397754">
<rect width="669.8" height="596.793" fill="white" transform="translate(205 242)"/>
</clipPath>
</defs>
</svg>
