<svg width="1080" height="1080" viewBox="0 0 1080 1080" fill="none" xmlns="http://www.w3.org/2000/svg">
<g clip-path="url(#clip0_71178_1474)">
<rect width="1080" height="1080" rx="48" fill="#D98100"/>
<g clip-path="url(#clip1_71178_1474)">
<path d="M836.822 305.571L504.163 322.372L508.643 353.734L830.101 413.097L828.981 381.736L796.499 354.854L825.621 336.933L836.822 305.571Z" fill="#7C52FF"/>
<path d="M306.495 660.953C322.256 688.392 333.514 719.993 358.149 741.159C384.142 763.48 419.075 774.74 453.015 767.74C510.895 755.82 550.794 704.77 584.966 660.689C589.668 654.613 594.337 648.537 599.105 642.527C604.138 636.122 613.31 628.164 611.588 619.182C609.502 608.286 597.88 607.922 589.436 611.29C580.297 614.956 572.119 620.404 565.298 627.536C558.476 634.669 569.139 644.938 575.827 638.037C582.516 631.135 588.277 624.432 593.939 617.135C596.655 613.635 600.628 609.606 601.886 605.281C603.144 600.955 601.092 595.606 597.085 593.195C590.032 588.936 580.926 595.177 574.37 598.214C567.251 601.516 560.198 605.281 554.569 610.828L565.099 621.329C571.291 614.989 577.35 608.55 582.516 601.351C587.35 594.615 594.502 584.181 587.052 576.751C580.065 569.784 570.397 576.025 563.377 579.657C555.861 583.553 548.51 588.176 542.649 594.285L555.099 601.516C557.781 592.931 560.463 584.346 563.145 575.761C564.602 571.072 566.059 566.812 563.841 561.892C561.622 556.972 556.887 554.033 551.556 554.43C545.662 554.859 541.887 559.482 538.543 563.84C525.762 580.582 514.239 598.313 500.464 614.262C488.842 627.734 473.412 643.122 453.843 640.843C437.187 638.895 426.525 622.682 418.612 609.639C413.645 601.483 400.764 608.946 405.731 617.135C413.711 630.244 423.413 644.278 437.651 651.179C454.339 659.269 473.71 655.769 488.743 645.631C505.497 634.305 517.981 616.838 529.802 600.79C535.894 592.535 541.788 584.148 547.914 575.926C549.205 574.176 550.463 572.36 551.854 570.709L552.715 569.751C554.536 568.496 553.775 568.034 550.53 568.331C550.364 568.1 550.232 567.803 550.132 567.77C549.503 567.704 550.728 566.317 550.066 567.473C549.735 568.1 549.602 568.959 549.371 569.652C546.457 578.931 543.576 588.242 540.662 597.521C538.444 604.62 548.013 610.036 553.112 604.752C556.92 600.79 561.357 597.752 566.092 595.044C568.443 593.691 570.827 592.436 573.244 591.247C574.403 590.653 575.595 590.091 576.787 589.563C577.549 589.2 578.311 588.87 579.072 588.506C581.092 588.044 580.695 587.153 577.946 585.832C574.768 582.761 575.662 583.884 574.138 586.723C573.377 588.143 572.516 589.53 571.655 590.917C570.198 593.162 568.609 595.309 566.887 597.389C563.013 602.078 558.774 606.436 554.536 610.795C547.848 617.663 558.245 628.032 565.066 621.295C568.874 617.531 573.642 614.989 578.443 612.644C581.059 611.356 583.741 610.168 586.423 608.979C587.516 608.484 588.608 608.021 589.701 607.526C590.396 607.229 591.092 606.899 591.787 606.602C594.502 605.677 593.078 604.884 587.615 604.29V600.328C587.35 602.144 584.602 604.851 583.41 606.469C581.555 608.946 579.635 611.323 577.681 613.701C573.741 618.456 569.569 623.046 565.264 627.47L575.794 637.971C580.794 632.72 586.655 628.428 593.343 625.555C594.734 624.961 596.522 624.763 597.813 624.036C599.568 623.046 599.005 625.621 597.284 622.583C596.489 621.196 597.88 620.404 596.257 622.121C595.86 622.55 595.562 623.112 595.198 623.574C594.237 624.829 593.211 626.05 592.218 627.305C584.403 637.112 576.787 647.117 569.072 656.99C552.914 677.661 536.225 698.166 516.755 715.865C498.478 732.507 477.22 746.607 452.916 752.485C424.406 759.386 394.539 751.032 371.725 733.102C346.063 712.959 335.07 680.765 319.342 653.358C314.574 645.07 301.693 652.533 306.461 660.854L306.495 660.953Z" fill="#F2F0EE"/>
<path d="M604.005 648.504C602.714 665.939 602.615 683.44 604.403 700.874C606.191 718.309 609.634 735.909 613.674 753.178C615.86 762.49 630.23 758.561 628.045 749.216C624.237 732.805 620.826 716.262 619.171 699.487C617.515 682.713 617.614 665.477 618.906 648.504C619.204 644.509 615.264 641.075 611.456 641.075C607.184 641.075 604.303 644.476 604.005 648.504Z" fill="#F2F0EE"/>
<path d="M350.533 503.05C334.077 511.404 318.017 521.542 303.912 533.462C289.806 545.382 279.707 562.024 272.522 579.195C264.84 597.554 259.972 617.201 254.707 636.353C249.078 656.858 244.045 677.529 240.535 698.497C236.463 722.733 234.41 747.267 235.635 771.834C236.131 781.344 251.032 781.41 250.535 771.834C248.449 730.262 256.065 689.383 266.628 649.33C271.594 630.508 276.495 611.422 283.018 593.096C288.78 576.916 296.859 561.133 309.11 548.882C322.819 535.179 340.898 524.645 358.083 515.895C366.626 511.536 359.109 498.725 350.566 503.05H350.533Z" fill="#F2F0EE"/>
<path d="M382.685 399.962C381.526 418.189 385.665 436.35 386.758 454.511C387.221 462.502 390.036 477.295 381.526 480.531C377.751 481.951 375.169 485.55 376.328 489.677C377.321 493.277 381.725 496.281 385.5 494.862C401.162 488.951 402.95 473.498 401.956 458.771C401.36 449.954 400.731 441.237 399.605 432.453C398.248 421.656 396.89 410.858 397.585 399.962C398.182 390.419 383.281 390.452 382.685 399.962Z" fill="#F2F0EE"/>
<path d="M646.256 634.14C697.282 617.333 732.149 571.006 755.526 524.943C760.79 514.574 765.525 503.975 769.896 493.21L758.936 497.635C770.327 503.612 782.744 507.772 795.293 510.645C807.843 513.518 820.856 515.466 833.604 514.211C839.299 513.65 842.809 508.334 840.027 503.017C836.319 495.918 829.134 490.701 822.412 486.639C815.69 482.578 808.074 478.847 800.293 477.46C790.989 475.809 787.015 488.984 796.32 491.79C803.571 493.97 811.021 495.522 818.505 496.611C826.451 497.767 834.498 498.626 842.478 497.173C846.65 496.413 848.372 491.691 847.676 488.026C846.186 480.332 839.166 474.488 833.074 470.228C826.65 465.738 819.266 462.27 811.419 461.379C804.134 460.553 801.154 472.176 807.644 475.214C815.16 478.714 823.24 481.026 831.385 482.545C839.531 484.064 848.372 485.153 856.749 483.337C862.51 482.116 863.57 474.818 860.027 470.922C854.133 464.483 846.319 459.596 838.736 455.435C831.153 451.275 822.809 447.378 814.366 444.704L812.379 459.299C826.518 461.016 842.246 464.12 856.318 460.421C860.755 459.266 863.438 453.52 860.755 449.492C850.888 434.666 832.809 432.354 817.114 427.236C807.545 424.132 798.207 420.401 788.936 416.471C786.618 415.481 784.333 414.457 782.048 413.5C781.717 413.368 782.28 414.853 782.28 414.82C782.148 414.226 782.479 413.07 782.578 412.476C783.307 408.084 783.803 403.99 782.446 399.631C779.664 390.617 770.691 390.485 764.4 395.9C762.446 397.584 760.757 399.532 759.135 401.546C758.274 402.636 757.413 403.759 756.552 404.848C758.373 402.537 755.791 405.806 756.055 405.476C755.062 406.731 754.102 407.985 753.142 409.273C747.115 417.528 743.076 426.576 739.102 435.92C735.129 445.265 730.327 453.553 724.467 461.577C700.825 493.97 660.726 505.89 622.714 511.14C612.316 512.593 601.688 513.155 591.191 512.527C583.277 512.065 574.999 511.107 567.814 507.508C554.337 500.706 546.722 487.102 540.695 473.861C532.219 455.171 527.782 435.062 521.623 415.58C515.464 396.098 508.411 377.739 497.12 361.361C491.723 353.535 478.809 360.965 484.239 368.856C504.603 398.343 509.636 434.038 521.888 466.959C527.782 482.743 535.099 499.55 547.616 511.305C560.132 523.061 577.615 527.056 595.131 527.584C616.489 528.212 637.78 524.15 658.408 519.131C677.415 514.508 695.725 506.881 711.421 495.092C726.784 483.568 739.566 468.676 748.241 451.506C752.81 442.458 755.89 432.75 761.122 424C763.174 420.599 765.459 417.363 767.91 414.226C769.598 412.047 769.896 411.419 772.545 408.613C773.009 408.117 773.505 407.622 774.002 407.16C774.631 406.565 775.062 406.565 775.062 406.334C774.995 407.49 767.81 407.622 768.009 403.561C767.976 404.452 768.472 405.575 768.439 406.532C768.34 410.594 766.519 415.052 768.208 419.575C770.327 425.255 776.221 427.071 781.353 429.25C786.485 431.43 791.949 433.708 797.28 435.821C807.114 439.685 817.114 442.789 827.246 445.661C834.63 447.742 843.339 450.185 847.809 456.954L852.246 446.025C846.418 447.543 839.2 447.048 832.776 446.586C825.922 446.091 819.101 445.199 812.28 444.373C803.637 443.317 802.644 456.558 810.293 458.968C817.942 461.379 824.465 464.549 831.12 468.214C837.776 471.879 844.299 475.809 849.398 481.389L852.676 468.974C847.312 470.129 840.027 469.106 834.067 467.95C827.677 466.695 820.624 464.945 815.061 462.336L811.286 476.172C810.061 476.04 812.942 476.634 813.538 476.799C814.432 477.063 815.326 477.394 816.187 477.757C819.101 478.979 821.915 480.63 824.531 482.413C826.749 483.899 828.802 485.583 830.624 487.531C832.213 489.215 832.842 490.338 833.173 491.956L838.372 482.809C833.372 483.734 825.756 482.809 819.928 481.884C813.24 480.795 806.617 479.375 800.127 477.427L796.154 491.757C802.412 492.88 808.273 495.654 813.703 498.824C818.736 501.796 824.399 505.593 826.948 510.48L833.372 499.286C821.849 500.409 810.26 498.824 799.035 496.248C787.81 493.673 776.519 490.139 766.254 484.724C761.618 482.281 757.148 484.625 755.294 489.149C753.572 493.375 752.579 495.687 750.559 500.244C748.539 504.8 746.321 509.456 744.069 514.013C739.036 524.183 733.539 534.155 727.513 543.797C714.334 564.864 698.408 584.907 678.507 600.097C667.481 608.517 655.23 615.352 642.051 619.711C632.978 622.682 636.886 637.046 646.024 634.041L646.256 634.14Z" fill="#F2F0EE"/>
<path d="M238.913 456.855C248.151 461.742 257.356 466.629 266.595 471.516C288.746 483.239 310.931 494.961 333.083 506.683C359.904 520.882 386.692 535.047 413.512 549.246C436.591 561.463 459.67 573.681 482.749 585.898C494.041 591.875 505.232 598.182 516.689 603.861C516.855 603.927 517.02 604.026 517.186 604.125C525.662 608.616 533.179 595.771 524.702 591.281C515.464 586.394 506.259 581.507 497.021 576.62C474.869 564.897 452.684 553.175 430.532 541.453C403.711 527.254 376.924 513.089 350.103 498.89C327.024 486.673 303.945 474.455 280.866 462.238C269.575 456.261 258.383 449.954 246.926 444.275C246.76 444.209 246.595 444.11 246.429 444.011C237.953 439.52 230.436 452.365 238.913 456.855Z" fill="#F2F0EE"/>
<path d="M253.78 431.76C263.018 436.647 272.224 441.534 281.462 446.421C303.614 458.143 325.799 469.865 347.951 481.587C374.771 495.786 401.559 509.952 428.379 524.15C451.459 536.368 474.538 548.585 497.617 560.803C508.908 566.779 520.1 573.086 531.556 578.766C531.722 578.832 531.887 578.931 532.053 579.03C540.53 583.52 548.046 570.676 539.569 566.185C530.331 561.298 521.126 556.411 511.888 551.524C489.736 539.802 467.551 528.08 445.399 516.357C418.578 502.159 391.791 487.993 364.97 473.794C341.891 461.577 318.812 449.36 295.733 437.142C284.442 431.165 273.25 424.859 261.793 419.179C261.628 419.113 261.462 419.014 261.297 418.915C252.82 414.424 245.303 427.269 253.78 431.76Z" fill="#F2F0EE"/>
<path d="M590.694 642.957C602.714 649.297 614.701 655.67 626.72 662.01C634.303 666.005 641.886 670.034 649.435 674.029C653.706 676.274 657.647 679.18 662.647 678.388C669.832 677.232 676.421 672.774 679.865 666.335C683.838 658.906 685.858 643.783 677.382 639.061C664.104 631.697 650.528 624.862 637.151 617.763C623.773 610.663 611.323 604.092 598.41 597.257C589.933 592.766 582.416 605.611 590.893 610.102C614.336 622.518 637.78 634.9 661.223 647.316L671.223 652.599L667.812 648.174C668.441 652.038 668.408 655.373 667.15 658.642C667.614 657.387 665.263 661.514 666.388 660.062C666.024 660.524 665.561 660.953 665.163 661.382C664.898 661.647 664.6 661.911 664.302 662.142C664.998 661.614 665.163 661.514 664.7 661.812C663.773 662.406 662.845 662.934 661.852 663.397C663.673 662.538 661.653 663.397 660.859 663.595C660.329 663.727 659.6 663.727 659.104 663.958C658.143 664.387 661.455 663.727 660.097 663.826L663.872 664.849C644.766 654.745 625.661 644.641 606.555 634.537C603.774 633.051 600.992 631.598 598.211 630.112C589.734 625.622 582.218 638.466 590.694 642.957Z" fill="#F2F0EE"/>
<path d="M829.73 310.345C829.001 334.185 839.133 364.498 865.755 369.154L867.742 354.559C859.53 355.186 851.12 358.257 844.398 362.946C829.001 373.644 823.173 391.31 824.034 409.504C824.498 419.014 839.034 419.113 838.935 409.504C838.835 399.895 836.716 388.999 832.975 379.753C825.822 362.021 811.518 349.606 791.618 349.903C782.048 350.035 782.015 364.663 791.618 364.762C800.227 364.828 809.366 361.922 816.783 357.762C834.332 347.955 842.411 329.529 844.63 310.345C845.093 306.349 840.888 302.915 837.18 302.915C832.776 302.915 830.193 306.349 829.73 310.345C828.736 318.897 826.12 327.251 821.187 334.317C817.842 339.138 813.637 342.638 808.107 345.544C807.544 345.841 806.982 346.105 806.419 346.37C804.598 347.294 806.518 346.37 805.458 346.799C804.399 347.228 803.372 347.591 802.28 347.922C800.161 348.615 798.008 349.077 795.79 349.507C795.392 349.573 794.995 349.606 794.631 349.705C793.273 350.035 796.452 349.507 795.227 349.639C794.565 349.705 793.935 349.771 793.273 349.837C792.71 349.87 792.147 349.903 791.585 349.903V364.762C798.935 364.663 805.425 366.776 810.094 371.168C812.942 373.842 813.736 374.965 815.657 378.135C816.518 379.555 817.279 381.074 818.008 382.56C818.207 382.989 818.405 383.418 818.604 383.847C818.339 383.154 818.339 383.22 818.67 384.013C818.968 384.772 819.266 385.532 819.531 386.291C820.624 389.296 821.485 392.4 822.18 395.504C822.478 396.857 822.743 398.211 822.975 399.598C823.107 400.259 823.604 404.155 823.339 401.777C823.637 404.32 823.935 406.896 823.968 409.471H838.868C838.504 401.645 839.332 393.027 842.643 386.588C843.405 385.069 844.299 383.649 845.259 382.263C846.583 380.314 844.431 383.187 845.888 381.404C846.352 380.843 846.815 380.314 847.312 379.786C848.338 378.696 849.398 377.706 850.524 376.715C851.881 375.526 850.226 376.847 851.319 376.088C851.848 375.725 852.345 375.361 852.875 375.031C853.901 374.371 854.928 373.776 855.987 373.182C856.484 372.918 857.014 372.654 857.51 372.389C857.709 372.29 859.729 371.399 858.636 371.861C857.544 372.323 859.497 371.531 859.663 371.465C860.126 371.3 860.59 371.135 861.053 370.97C861.914 370.705 862.742 370.441 863.603 370.21C864.994 369.847 866.418 369.583 867.841 369.286C869.629 368.922 865.623 369.484 867.643 369.319C871.318 369.021 874.497 366.71 874.96 362.88C875.358 359.512 873.338 355.384 869.629 354.724C862.941 353.568 858.404 351.025 854.232 345.94C851.054 342.044 848.736 336.596 847.213 331.081C846.451 328.374 845.855 325.6 845.425 322.826C845.325 322.199 845.226 321.538 845.127 320.911C845.391 322.727 845.127 320.713 845.093 320.482C844.994 319.392 844.862 318.302 844.795 317.213C844.63 314.901 844.497 312.557 844.564 310.246C844.862 300.67 829.961 300.703 829.663 310.246L829.73 310.345Z" fill="#F2F0EE"/>
<path d="M461.359 385.036C466.326 394.546 471.293 404.089 476.26 413.599C476.988 414.953 477.683 416.339 478.412 417.693L481.094 407.523C475.399 410.495 469.736 413.5 464.041 416.472C460.598 418.288 459.24 423.373 461.359 426.642C463.611 430.142 467.849 431.232 471.558 429.316C477.253 426.345 482.915 423.34 488.61 420.368C492.286 418.42 493.08 413.632 491.292 410.198C486.326 400.688 481.359 391.145 476.392 381.635C475.664 380.281 474.968 378.895 474.24 377.541C472.452 374.074 467.319 372.786 464.041 374.866C460.498 377.145 459.439 381.338 461.359 385.036Z" fill="#F2F0EE"/>
<path d="M496.491 363.408C500.332 361.955 504.173 360.503 508.014 359.083C511.855 357.663 514.504 354.064 513.212 349.936C510.895 342.507 508.544 335.044 506.226 327.614C505.1 324.081 500.928 320.911 497.054 322.43C493.18 323.949 489.14 325.501 485.167 327.02C484.802 327.152 481.392 328.11 481.292 328.539L483.412 328.605C484.107 328.968 484.008 328.935 483.18 328.473C483.246 328.572 482.186 327.747 482.584 328.077C481.061 326.921 479.769 325.336 478.478 323.949C467.65 312.095 451.823 308.463 436.161 310.411C403.777 314.472 372.851 337.917 371.328 372.324C371.063 378.102 370.93 383.914 370.798 389.725C370.698 394.15 369.407 401.811 372.983 405.245C374.771 406.962 377.751 408.085 380.235 407.16C409.903 395.999 439.604 384.838 469.273 373.678C478.345 370.276 487.418 366.875 496.458 363.441C500.232 362.021 502.782 358.422 501.656 354.295C500.663 350.696 496.292 347.691 492.484 349.111C457.386 362.319 422.287 375.494 387.221 388.702C383.579 390.089 379.904 391.442 376.261 392.829L383.513 394.744C384.142 395.801 384.804 396.924 385.433 398.013C386.294 401.547 385.599 397.815 385.599 396.461C385.599 393.952 385.665 391.442 385.731 388.933C385.831 383.947 385.996 378.994 386.162 374.008C386.658 360.8 392.354 349.21 402.387 340.525C412.42 331.841 426.757 325.831 440.167 324.907C446.724 324.444 453.545 325.006 459.571 327.846C464.935 330.355 467.319 334.549 472.054 338.643C475.034 341.252 478.544 343.497 482.683 343.365C484.802 343.299 486.557 342.44 488.478 341.714C492.65 340.096 496.855 338.478 501.027 336.86L491.855 331.676C494.173 339.105 496.524 346.568 498.842 353.998L504.04 344.851C500.199 346.304 496.358 347.757 492.517 349.177C488.676 350.596 486.193 354.196 487.319 358.323C488.312 361.922 492.683 364.927 496.491 363.507V363.408Z" fill="#F2F0EE"/>
<path d="M412.387 334.78C413.082 335.044 409.936 333.69 411.459 334.416C412.188 334.747 412.916 335.11 413.612 335.473C416.128 336.794 418.545 338.28 420.83 339.964C421.194 340.228 421.525 340.492 421.89 340.756C422.916 341.516 420.631 339.733 421.625 340.558C422.419 341.219 423.214 341.846 423.976 342.539C425.532 343.926 427.022 345.379 428.446 346.931C429.207 347.757 429.903 348.615 430.631 349.474C431.691 350.761 430.068 348.648 430.83 349.738C431.227 350.299 431.625 350.827 431.989 351.389C433.38 353.436 434.638 355.582 435.73 357.795C436.062 358.455 436.36 359.149 436.658 359.809C435.962 358.29 436.79 360.172 436.956 360.667C437.452 362.054 437.916 363.474 438.313 364.894C438.744 366.512 439.108 368.13 439.406 369.748C439.472 370.177 439.538 370.607 439.605 371.036C439.803 372.159 439.505 369.847 439.605 371.036C439.671 372.059 439.803 373.05 439.869 374.074C440.134 377.937 443.114 381.701 447.32 381.503C451.128 381.338 455.035 378.234 454.77 374.074C453.909 360.866 449.273 348.846 440.863 338.61C435.73 332.336 429.108 327.02 421.956 323.157C420.135 322.166 418.247 321.307 416.327 320.548C412.685 319.128 407.983 322.1 407.155 325.732C406.162 330.025 408.479 333.327 412.353 334.879L412.387 334.78Z" fill="#F2F0EE"/>
<path d="M429.042 324.774C429.936 325.204 430.797 325.732 431.625 326.26C432.585 326.855 433.512 327.515 434.439 328.175C434.704 328.374 434.936 328.572 435.201 328.737C435.565 328.968 433.711 327.515 434.737 328.407C435.399 328.935 436.062 329.463 436.691 330.025C439.704 332.633 442.353 335.572 444.902 338.643C444.108 337.685 444.505 338.148 445.002 338.808C445.333 339.237 445.631 339.666 445.929 340.129C446.69 341.185 447.386 342.275 448.081 343.398C449.439 345.61 450.697 347.922 451.79 350.299C451.955 350.695 452.882 352.842 452.32 351.488C452.618 352.214 452.882 352.941 453.147 353.667C453.743 355.285 454.273 356.936 454.77 358.587C455.829 362.219 456.558 365.918 457.088 369.649C457.651 373.611 462.717 375.791 466.26 374.833C470.564 373.644 472.021 369.682 471.458 365.686C468.544 345.082 457.518 325.666 440.002 314.076C438.876 313.349 437.75 312.59 436.525 312.029C432.916 310.279 428.479 311.038 426.327 314.703C424.406 317.972 425.366 323.09 429.009 324.873L429.042 324.774Z" fill="#F2F0EE"/>
<path d="M331.163 321.208C313.514 333.558 297.952 349.606 284.177 365.984C253.184 402.768 230.238 446.421 220.139 493.574C212.589 528.707 212.291 564.666 217.821 600.097L231.43 594.384C230.503 592.634 229.675 590.851 228.847 589.035C227.887 586.955 226.96 584.808 226.032 582.695C225.569 581.671 226.827 584.61 226.231 583.157C226.099 582.86 225.966 582.563 225.834 582.233C225.536 581.539 225.271 580.846 224.973 580.153C224.377 578.634 223.781 577.148 223.185 575.629C216.794 559.053 211.927 541.849 208.914 524.348C208.45 521.74 208.053 519.164 207.688 516.556C207.622 516.159 207.821 517.579 207.622 516.093C207.556 515.466 207.457 514.872 207.39 514.244C207.225 512.791 207.059 511.339 206.894 509.886C206.331 504.371 206 498.824 205.867 493.276C205.735 487.729 205.867 481.818 206.265 476.106C206.463 473.2 206.728 470.294 207.092 467.389C207.126 467.091 207.357 465.308 207.258 466.035C207.159 466.761 207.457 464.681 207.49 464.318C207.722 462.865 207.953 461.379 208.218 459.926C212.688 434.765 222.953 412.146 239.211 393.324C260.966 368.097 290.535 351.224 321.726 339.898C326.726 338.082 331.759 336.398 336.858 334.846C345.997 332.006 342.09 317.675 332.885 320.515C297.554 331.478 262.985 348.054 236.529 374.371C216.86 393.952 202.755 418.618 196.033 445.529C190.238 468.875 189.676 493.243 192.788 517.018C195.338 536.533 200.04 555.685 206.728 574.209C210.006 583.322 213.351 593.129 218.284 601.517C218.35 601.649 218.417 601.781 218.483 601.88C220.205 605.116 224.542 606.338 227.787 604.918C231.43 603.333 232.688 599.932 232.092 596.167C223.417 540.726 231.695 483.668 256.992 433.51C273.813 400.16 295.766 371.564 323.448 346.568C327.322 343.068 331.295 339.7 335.368 336.464C335.699 336.2 336.063 335.935 336.395 335.638C337.388 334.813 334.573 337.025 335.964 335.968C336.428 335.605 336.891 335.242 337.388 334.912C337.785 334.615 338.183 334.35 338.547 334.053C341.825 331.742 343.381 327.548 341.229 323.883C339.342 320.647 334.342 318.897 331.03 321.208H331.163Z" fill="#F2F0EE"/>
</g>
</g>
<defs>
<clipPath id="clip0_71178_1474">
<rect width="1080" height="1080" rx="48" fill="white"/>
</clipPath>
<clipPath id="clip1_71178_1474">
<rect width="698" height="478" fill="white" transform="translate(191 301)"/>
</clipPath>
</defs>
</svg>
